HIERARCHY
ROOT Hips
{
    OFFSET 0.000000 0.000000 0.000000
    CHANNELS 6 Xposition Yposition Zposition Zrotation Yrotation Xrotation
    JOINT Chest
    {
        OFFSET 0.000000 1.634758 -0.000000
        CHANNELS 3 Zrotation Yrotation Xrotation
        JOINT Chest2
        {
            OFFSET 0.000000 2.197341 0.000000
            CHANNELS 3 Zrotation Yrotation Xrotation
            JOINT Neck
            {
                OFFSET 0.000000 0.961544 0.000000
                CHANNELS 3 Zrotation Yrotation Xrotation
                JOINT Head
                {
                    OFFSET 0.000000 0.632542 -0.032565
                    CHANNELS 3 Zrotation Yrotation Xrotation
                    End Site
                    {
                        OFFSET -0.000001 0.439502 2.922845
                    }
                }
            }
            JOINT LeftCollar
            {
                OFFSET 0.167536 0.778237 -0.168280
                CHANNELS 3 Zrotation Yrotation Xrotation
                JOINT LeftShoulder
                {
                    OFFSET 0.831514 -0.002900 0.006458
                    CHANNELS 3 Zrotation Yrotation Xrotation
                    JOINT LeftElbow
                    {
                        OFFSET 2.272872 -0.026639 0.059314
                        CHANNELS 3 Zrotation Yrotation Xrotation
                        JOINT LeftWrist
                        {
                            OFFSET 2.081982 -0.024402 0.054333
                            CHANNELS 3 Zrotation Yrotation Xrotation
                            JOINT LeftHandThumb1
                            {
                                OFFSET 0.218903 -0.128645 0.283837
                                CHANNELS 3 Zrotation Yrotation Xrotation
                                JOINT LeftHandThumb2
                                {
                                    OFFSET 0.137157 -0.025101 0.077902
                                    CHANNELS 3 Zrotation Yrotation Xrotation
                                    JOINT LeftHandThumb3
                                    {
                                        OFFSET 0.163695 -0.082113 0.000709
                                        CHANNELS 3 Zrotation Yrotation Xrotation
                                        End Site
                                        {
                                            OFFSET 0.235943 -0.101461 -0.076636
                                        }
                                    }
                                }
                            }
                            JOINT LeftHandFore1
                            {
                                OFFSET 0.767340 -0.016076 0.196678
                                CHANNELS 3 Zrotation Yrotation Xrotation
                                JOINT LeftHandFore2
                                {
                                    OFFSET 0.108637 -0.182362 -0.044017
                                    CHANNELS 3 Zrotation Yrotation Xrotation
                                    JOINT LeftHandFore3
                                    {
                                        OFFSET -0.047598 -0.120232 -0.006451
                                        CHANNELS 3 Zrotation Yrotation Xrotation
                                        End Site
                                        {
                                            OFFSET -0.186245 -0.046824 0.022070
                                        }
                                    }
                                }
                            }
                            JOINT LeftHandMiddle1
                            {
                                OFFSET 0.709887 -0.008320 0.018526
                                CHANNELS 3 Zrotation Yrotation Xrotation
                                JOINT LeftHandMiddle2
                                {
                                    OFFSET 0.121953 -0.209269 -0.037387
                                    CHANNELS 3 Zrotation Yrotation Xrotation
                                    JOINT LeftHandMiddle3
                                    {
                                        OFFSET -0.071764 -0.126973 -0.010531
                                        CHANNELS 3 Zrotation Yrotation Xrotation
                                        End Site
                                        {
                                            OFFSET -0.235528 -0.003392 0.012053
                                        }
                                    }
                                }
                            }
                            JOINT LeftHandRing1
                            {
                                OFFSET 0.743817 -0.005823 -0.153668
                                CHANNELS 3 Zrotation Yrotation Xrotation
                                JOINT LeftHandRing2
                                {
                                    OFFSET 0.161764 -0.305435 -0.072632
                                    CHANNELS 3 Zrotation Yrotation Xrotation
                                    JOINT LeftHandRing3
                                    {
                                        OFFSET -0.076086 -0.112682 -0.010918
                                        CHANNELS 3 Zrotation Yrotation Xrotation
                                        End Site
                                        {
                                            OFFSET -0.119436 0.012058 -0.003047
                                        }
                                    }
                                }
                            }
                            JOINT LeftHandLittle1
                            {
                                OFFSET 0.689408 -0.053302 -0.308304
                                CHANNELS 3 Zrotation Yrotation Xrotation
                                JOINT LeftHandLittle2
                                {
                                    OFFSET 0.063897 -0.177902 -0.048187
                                    CHANNELS 3 Zrotation Yrotation Xrotation
                                    JOINT LeftHandLittle3
                                    {
                                        OFFSET -0.045640 -0.107188 -0.030396
                                        CHANNELS 3 Zrotation Yrotation Xrotation
                                        End Site
                                        {
                                            OFFSET -0.183432 -0.038497 -0.034048
                                        }
                                    }
                                }
                            }
                        }
                    }
                }
            }
            JOINT RightCollar
            {
                OFFSET -0.167536 0.778237 -0.168280
                CHANNELS 3 Zrotation Yrotation Xrotation
                JOINT RightShoulder
                {
                    OFFSET -0.831514 -0.002900 0.006457
                    CHANNELS 3 Zrotation Yrotation Xrotation
                    JOINT RightElbow
                    {
                        OFFSET -2.272872 -0.026639 0.059313
                        CHANNELS 3 Zrotation Yrotation Xrotation
                        JOINT RightWrist
                        {
                            OFFSET -2.081982 -0.024402 0.054331
                            CHANNELS 3 Zrotation Yrotation Xrotation
                            JOINT RightHandThumb1
                            {
                                OFFSET -0.218911 -0.128571 0.283837
                                CHANNELS 3 Zrotation Yrotation Xrotation
                                JOINT RightHandThumb2
                                {
                                    OFFSET -0.137157 -0.025101 0.077902
                                    CHANNELS 3 Zrotation Yrotation Xrotation
                                    JOINT RightHandThumb3
                                    {
                                        OFFSET -0.157714 -0.092761 0.007808
                                        CHANNELS 3 Zrotation Yrotation Xrotation
                                        End Site
                                        {
                                            OFFSET -0.183504 -0.194818 -0.014453
                                        }
                                    }
                                }
                            }
                            JOINT RightHandFore1
                            {
                                OFFSET -0.767344 -0.015991 0.196679
                                CHANNELS 3 Zrotation Yrotation Xrotation
                                JOINT RightHandFore2
                                {
                                    OFFSET -0.108680 -0.182336 -0.044034
                                    CHANNELS 3 Zrotation Yrotation Xrotation
                                    JOINT RightHandFore3
                                    {
                                        OFFSET 0.045211 -0.121264 0.003606
                                        CHANNELS 3 Zrotation Yrotation Xrotation
                                        End Site
                                        {
                                            OFFSET 0.178852 -0.050053 0.053607
                                        }
                                    }
                                }
                            }
                            JOINT RightHandMiddle1
                            {
                                OFFSET -0.709887 -0.008302 0.018525
                                CHANNELS 3 Zrotation Yrotation Xrotation
                                JOINT RightHandMiddle2
                                {
                                    OFFSET -0.121931 -0.209278 -0.037380
                                    CHANNELS 3 Zrotation Yrotation Xrotation
                                    JOINT RightHandMiddle3
                                    {
                                        OFFSET 0.068701 -0.128745 0.009450
                                        CHANNELS 3 Zrotation Yrotation Xrotation
                                        End Site
                                        {
                                            OFFSET 0.228380 -0.007516 0.058451
                                        }
                                    }
                                }
                            }
                            JOINT RightHandRing1
                            {
                                OFFSET -0.743819 -0.005785 -0.153669
                                CHANNELS 3 Zrotation Yrotation Xrotation
                                JOINT RightHandRing2
                                {
                                    OFFSET -0.161785 -0.305422 -0.072637
                                    CHANNELS 3 Zrotation Yrotation Xrotation
                                    JOINT RightHandRing3
                                    {
                                        OFFSET 0.070874 -0.115738 0.013661
                                        CHANNELS 3 Zrotation Yrotation Xrotation
                                        End Site
                                        {
                                            OFFSET 0.107399 0.005016 0.053485
                                        }
                                    }
                                }
                            }
                            JOINT RightHandLittle1
                            {
                                OFFSET -0.689403 -0.053298 -0.308303
                                CHANNELS 3 Zrotation Yrotation Xrotation
                                JOINT RightHandLittle2
                                {
                                    OFFSET -0.063903 -0.177903 -0.048189
                                    CHANNELS 3 Zrotation Yrotation Xrotation
                                    JOINT RightHandLittle3
                                    {
                                        OFFSET 0.042249 -0.112582 -0.005988
                                        CHANNELS 3 Zrotation Yrotation Xrotation
                                        End Site
                                        {
                                            OFFSET 0.170191 -0.059569 0.061443
                                        }
                                    }
                                }
                            }
                        }
                    }
                }
            }
        }
    }
    JOINT LeftHip
    {
        OFFSET 0.685143 0.673822 -0.044491
        CHANNELS 3 Zrotation Yrotation Xrotation
        JOINT LeftKnee
        {
            OFFSET 0.085364 -3.750208 0.017676
            CHANNELS 3 Zrotation Yrotation Xrotation
            JOINT LeftAnkle
            {
                OFFSET 0.094583 -4.155206 0.019585
                CHANNELS 3 Zrotation Yrotation Xrotation
                JOINT LeftToe
                {
                    OFFSET -0.000000 -0.395925 0.621478
                    CHANNELS 3 Zrotation Yrotation Xrotation
                    End Site
                    {
                        OFFSET -0.000000 -0.077878 0.321152
                    }
                }
            }
        }
    }
    JOINT RightHip
    {
        OFFSET -0.685143 0.673822 -0.044492
        CHANNELS 3 Zrotation Yrotation Xrotation
        JOINT RightKnee
        {
            OFFSET -0.085364 -3.750208 0.017677
            CHANNELS 3 Zrotation Yrotation Xrotation
            JOINT RightAnkle
            {
                OFFSET -0.094583 -4.155206 0.019585
                CHANNELS 3 Zrotation Yrotation Xrotation
                JOINT RightToe
                {
                    OFFSET -0.000000 -0.395925 0.621478
                    CHANNELS 3 Zrotation Yrotation Xrotation
                    End Site
                    {
                        OFFSET -0.000000 -0.077878 0.321152
                    }
                }
            }
        }
    }
}
MOTION
Frames: 6
Frame Time: 0.033333
-0.358079 8.578344 -0.216836 180.000000 38.961082 -163.384262 -9.296407 13.813714 6.036119 0.135937 -2.132813 -3.647775 0.225575 5.244566 -8.365036 -0.328078 6.346323 -14.176252 -1.411397 -10.335684 -0.098089 -55.233490 -40.584339 -2.841537 3.468788 -80.710114 -4.089164 39.466850 7.298085 -16.735464 -0.000002 0.000005 -0.000000 0.000003 -0.000005 0.000003 0.000001 0.000005 0.000000 -0.000003 -0.000003 -0.000000 0.000004 0.000003 -0.000000 0.000003 -0.000003 -0.000000 -0.000003 -0.000001 -0.000001 0.000002 0.000002 -0.000002 0.000001 0.000002 0.000001 0.000000 -0.000002 0.000000 0.000002 -0.000000 -0.000001 -0.000002 0.000001 -0.000001 0.000002 -0.000001 0.000000 -0.000001 -0.000001 -0.000001 0.000001 0.000003 -0.000001 -3.942048 12.822083 -0.187198 38.948330 57.559166 -21.419331 -169.761063 85.979263 -170.459534 -39.617920 -7.140824 -15.971016 -0.000005 -0.000000 0.000000 0.000000 -0.000003 -0.000002 0.000000 0.000003 0.000000 0.000000 0.000003 0.000002 -0.000003 -0.000000 -0.000005 0.000003 -0.000002 0.000002 0.000002 0.000005 0.000002 0.000002 -0.000007 0.000000 0.000002 -0.000002 0.000002 0.000000 -0.000002 0.000002 -0.000005 -0.000000 -0.000002 0.000007 -0.000003 0.000002 -0.000003 0.000007 0.000000 -0.000002 -0.000002 0.000003 -0.000005 0.000007 0.000000 5.872003 0.743886 -28.929201 0.009417 0.156427 6.888726 4.806914 5.096864 4.350193 0.000003 -0.000000 -0.000004 -3.243205 -0.052096 -21.250105 -0.018799 -0.220665 9.741095 -2.242410 -2.757168 -9.108211 -0.000001 -0.000007 0.000003
-0.344778 8.578005 -0.007204 179.933960 36.878639 -163.465607 -8.519873 13.659717 6.003876 0.418031 -2.137288 -2.910772 0.078859 5.114555 -4.332792 -0.309089 5.981795 -6.567647 -3.820533 -10.126530 -0.190444 -42.071209 -30.946344 3.601084 1.609265 -72.967278 -2.183351 37.436203 15.889016 -16.835035 0.000002 -0.000003 -0.000012 0.196453 -0.541836 -0.085848 0.362053 -1.029346 -0.617492 2.191362 -0.639664 -0.370930 2.135128 -0.248283 0.378947 2.349766 -0.216080 0.544687 2.241460 -0.423108 -0.289309 2.549698 -0.141009 0.241397 2.507903 -0.219427 0.275205 2.246027 -0.491506 -0.262214 2.584252 -0.002708 0.363533 2.511008 -0.088722 0.393306 2.742422 -0.275003 -0.327974 1.532080 -0.006731 0.049250 2.757121 -0.287397 0.335255 -1.635461 14.044618 -0.104925 33.522518 44.176651 -17.570152 -7.682432 85.398987 -8.330626 -38.832733 -12.158279 -17.443726 -0.000010 -0.000003 0.000000 -0.350752 0.275435 -0.375672 -0.869398 0.799317 -0.422176 -2.191381 0.639630 -0.371075 -2.087999 0.200022 0.602780 -2.342095 0.284293 0.545065 -2.241470 0.423120 -0.289240 -2.488529 0.323676 0.525062 -2.474007 0.239908 0.482713 -2.246023 0.491496 -0.262233 -2.427972 0.647286 0.691132 -2.397146 0.547307 0.639343 -2.742432 0.274986 -0.327968 -1.350144 0.635493 0.343318 -2.607658 0.916303 0.382015 6.502820 0.703058 -29.540195 0.005592 0.120613 5.306261 3.808264 3.747469 6.479997 0.000000 -0.000003 -0.000001 -2.324220 -0.012554 -22.984324 -0.026304 -0.260643 11.528049 -3.247936 -2.776274 -9.014870 -0.000001 -0.000007 0.000002
-0.312666 8.576784 0.426293 179.781784 32.112316 -163.693604 -6.465453 13.260118 5.091100 1.265617 -2.167412 -2.002216 -0.610567 4.405400 -0.610967 -0.225026 4.362445 0.872156 -5.778692 -9.597453 -0.269027 -37.972591 -25.791986 9.234513 0.749304 -61.943493 -1.255752 33.758354 26.388762 -28.523581 0.000012 0.000007 -0.000010 0.726757 -1.968132 -0.316174 1.363557 -3.745151 -2.246640 8.011307 -2.321064 -1.342587 7.753353 -0.989590 1.334279 8.540364 -0.894100 1.904472 8.171870 -1.529548 -1.049489 9.268491 -0.592589 0.824096 9.118551 -0.853360 0.919120 8.192352 -1.779668 -0.949016 9.400702 -0.121274 1.245836 9.135550 -0.367545 1.343254 9.986636 -0.985822 -1.189908 5.566956 -0.046708 0.137377 10.025749 -1.033559 1.048231 1.084160 15.414076 -0.003948 16.826929 37.145847 -3.204628 -0.770810 62.397911 -1.280092 -37.455254 -22.974003 -33.810703 0.000002 0.000013 0.000003 -1.277335 0.993402 -1.380560 -3.197558 2.850823 -1.624703 -8.011298 2.320938 -1.343078 -7.585888 0.810317 2.150162 -8.496848 1.134526 1.951288 -8.171874 1.529600 -1.049238 -9.034979 1.253058 1.858477 -8.980005 0.969551 1.734049 -8.192326 1.779649 -0.949072 -8.778612 2.452618 2.446715 -8.659564 2.146255 2.271500 -9.986629 0.985787 -1.189908 -4.886017 2.329092 1.215543 -9.402990 3.478567 1.283869 7.369883 0.623071 -29.899229 0.000000 -0.000002 0.000000 1.592262 0.893111 12.223254 -0.000000 -0.000007 -0.000003 -0.664227 0.047615 -25.532122 -0.034035 -0.296029 13.119519 -4.991199 -3.485320 -7.705495 -0.000000 -0.000000 0.000000
-0.274802 8.574473 0.792045 179.612396 26.883631 -164.044205 -3.803860 12.712714 1.867386 2.433174 -2.151032 -3.027313 -1.562520 3.587897 3.937250 -0.130939 2.541739 9.860645 -8.328701 -8.399343 -0.373025 -41.739983 -22.687523 10.522261 0.223513 -41.622746 -0.595375 31.157642 28.738991 -26.198412 0.000010 0.000003 -0.000020 1.507844 -3.978741 -0.652977 2.900874 -7.585959 -4.563028 16.344467 -4.683177 -2.702991 15.669069 -2.240846 2.558479 17.280138 -2.100199 3.612793 16.608070 -3.070788 -2.116741 18.758780 -1.412507 1.494538 18.463638 -1.864140 1.614179 16.660604 -3.581085 -1.908214 19.039083 -0.541366 2.275175 18.511089 -0.848776 2.460546 20.263226 -1.955740 -2.397623 11.259282 -0.150828 0.155280 20.303331 -2.008217 1.641053 3.347361 14.124136 0.093852 19.992250 26.371944 3.355591 -0.511492 55.592857 -0.977576 -35.376225 -29.549639 -30.497643 0.000007 0.000002 -0.000003 -2.592291 1.987771 -2.836815 -6.585610 5.601562 -3.546205 -16.344494 4.682921 -2.704020 -15.340417 1.868024 4.217072 -17.147671 2.575244 3.840420 -16.608095 3.070886 -2.116266 -18.257658 2.739765 3.599748 -18.135422 2.233202 3.426638 -16.660597 3.581015 -1.908341 -17.641809 5.226504 4.746972 -17.370296 4.771586 4.416047 -20.263227 1.955653 -2.397648 -9.832245 4.762452 2.367725 -18.833872 7.427215 2.273797 7.360325 0.415535 -36.023926 0.007641 0.140950 6.204416 -0.550949 -2.011886 12.795766 -0.000001 -0.000003 -0.000001 0.349696 0.085642 -27.008337 -0.035392 -0.301795 13.379811 -5.883707 -5.530161 -6.070722 -0.000001 -0.000003 0.000004
-0.243463 8.571157 1.038401 179.494675 23.023922 -164.493362 -1.808687 11.862103 -2.035227 2.941001 -1.976170 -4.829263 -2.446417 3.037542 7.784579 -0.083127 1.614342 17.367687 -10.293151 -6.724213 -0.432149 -44.280884 -30.556355 7.802887 0.000000 -0.000005 0.000002 28.855524 31.049576 -20.826191 0.000011 0.000007 -0.000003 2.450074 -6.274124 -1.057957 4.851385 -11.981850 -7.259685 26.047489 -7.364359 -4.247757 24.706198 -3.940356 3.744636 27.283310 -3.790667 5.215093 26.352598 -4.803445 -3.327096 29.626711 -2.575466 2.004182 29.181549 -3.137734 2.078930 26.455330 -5.616225 -2.989309 30.079580 -1.330399 3.086413 29.271032 -1.473088 3.400427 32.092690 -3.018478 -3.757983 17.764118 -0.323047 0.016166 32.085758 -2.905823 1.753409 5.648938 11.349548 0.188789 25.689108 12.779226 4.552072 -0.394368 51.147522 -0.831389 -31.710676 -30.014177 -23.073822 -0.000012 -0.000009 -0.000012 -4.107314 3.096868 -4.556816 -10.620149 8.514063 -6.066595 -26.047544 7.363944 -4.249385 -24.203697 3.335983 6.378842 -26.992992 4.543458 5.819540 -26.352633 4.803588 -3.326334 -28.792452 4.656824 5.355093 -28.569004 3.992950 5.210226 -26.455338 5.616126 -2.989515 -27.663586 8.674517 7.091301 -27.160240 8.255694 6.583938 -32.092697 3.018337 -3.758024 -15.438379 7.595697 3.572616 -29.450281 12.344235 2.953439 6.941099 0.216410 -41.993462 0.039720 0.319388 14.175638 -2.002795 -3.625260 12.198947 0.000002 0.000002 0.000006 0.795762 0.110063 -27.848860 -0.036314 -0.305644 13.553516 -6.076973 -6.631695 -5.033428 0.000001 0.000003 0.000005
-0.211860 8.567014 1.301192 179.478180 19.593014 -165.017014 -0.817828 10.548607 -2.679447 2.627281 -1.823576 -3.518713 -2.852560 2.516422 8.628773 -0.054748 1.063444 19.058401 -10.117010 -5.028312 -0.375041 -40.066231 -23.636145 5.371665 -0.000003 0.000002 -0.000002 26.321835 33.402889 -15.728672 0.000019 -0.000003 -0.000010 3.444637 -8.558052 -1.486710 7.024053 -16.358301 -10.031023 35.909889 -10.012154 -5.782075 33.713371 -5.883735 4.660751 37.282696 -5.741684 6.387928 36.174286 -6.499562 -4.520585 40.489651 -3.922339 2.198933 39.916389 -4.468738 2.172091 36.341183 -7.618911 -4.048863 41.106216 -2.368027 3.449804 40.043476 -2.107512 3.967966 43.972347 -4.032636 -5.082778 24.243696 -0.531900 -0.298550 43.857609 -3.450647 1.321377 6.385433 8.869970 0.197736 25.701174 4.727298 4.329238 -0.290052 45.924599 -0.691878 -29.649954 -29.680088 -17.034515 0.000002 0.000004 -0.000012 -5.631032 4.171903 -6.330112 -14.823758 11.137536 -8.921421 -35.909950 10.011591 -5.784317 -33.045399 5.040458 8.282136 -36.772636 6.809092 7.551656 -36.174282 6.499772 -4.519557 -39.305321 6.751087 6.818960 -38.944378 6.047989 6.775199 -36.341164 7.618780 -4.049151 -37.583080 12.342857 9.091834 -36.774864 12.176224 8.384390 -43.972317 4.032445 -5.082851 -20.991671 10.460878 4.654545 -39.957142 17.577059 3.096076 6.510520 0.073857 -44.165833 0.045539 0.341600 15.184459 -3.450699 -4.610934 15.190067 -0.000001 0.000003 0.000003 1.244558 0.129692 -28.372271 -0.032907 -0.291143 12.899287 -6.169514 -7.258727 -3.402173 0.000001 0.000002 -0.000003
